<svg xmlns="http://www.w3.org/2000/svg" width="1111" height="1015"><path fill-rule="evenodd" d="M52.756.496H1062.72c7.644 0 26.011 2.96 35.779 9.276 10.521 6.802 11.829 15.434 11.829 15.434s.439 3.958.563 6.342c.093 1.794-.696 4.886-.696 4.886s-.605 5.528-.538 6.704c.194 3.442.361 6.054.436 7.555.175 3.537.539 6.497.174 9.129-.112 1.635-60.326 383.45-60.326 383.45s-1.37 7.241-4.042 11.486c-2.673 4.244-7.933 8.161-7.933 8.161v501.896c.198 14.608-4.627 29.57-15.683 38.206-10.932 8.539-21.822 11.004-34.641 11.004H121.116c-15.406 0-26.887-4.819-35.855-14.285-8.357-8.819-11.617-21.762-11.617-34.871l-.115-502.426s-5.35-2.782-8.711-8.821c-3.36-6.04-3.418-11.691-3.418-11.691S1.064 62.867.879 61.679C.553 59.593.222 53.167.396 49.513c.112-2.344.797-9.909.797-9.909s-2.601-10.458 1.26-19.624c1.541-3.659 4.662-7.097 8.98-9.873C27.102.037 52.756.496 52.756.496z"/></svg>