<svg xmlns="http://www.w3.org/2000/svg" width="718" height="655"><path fill-rule="evenodd" d="M34.674.249H686.58c4.934 0 16.79 1.951 23.094 6.027 6.792 4.391 7.636 9.963 7.636 9.963s.283 2.555.363 4.093c.06 1.158-.449 3.154-.449 3.154s-.39 3.568-.347 4.327c.125 2.222.233 3.908.281 4.877.113 2.283.348 4.194.112 5.892-.072 1.056-38.939 247.507-38.939 247.507s-.884 4.674-2.609 7.414c-1.725 2.74-5.12 5.268-5.12 5.268v323.961c.128 9.429-2.986 19.087-10.123 24.661-7.056 5.512-14.085 7.103-22.36 7.103H78.799c-9.944 0-17.354-3.111-23.143-9.221-5.394-5.692-7.499-14.046-7.499-22.508l-.074-324.303s-3.453-1.795-5.623-5.694c-2.169-3.899-2.206-7.546-2.206-7.546S1.309 40.548 1.189 39.781c-.21-1.346-.424-5.494-.311-7.853.072-1.512.514-6.396.514-6.396s-1.679-6.75.813-12.667c.995-2.361 3.009-4.581 5.797-6.372C18.116-.007 34.674.249 34.674.249z"/></svg>