<svg xmlns="http://www.w3.org/2000/svg" width="644" height="322"><path fill-rule="evenodd" d="M226.498 141.43s-11.151 4.22-15.898 7.198c-2.533 1.589-12.705 5.968-18.27 6.686-6.566.846-9.83.769-10.186.82-2.606.375-15.597-2.411-25.219-2.834-6.72-.295-26.706 3.759-31.238 4.727-8.639 1.845-21.401 5.369-31.043 10.469-12.456 6.59-13.127 7.139-25.967 12.11-6.844 2.649-17.839 8.592-24.455 11.395-6.259 2.726-17.285 7.269-25.749 10.568-4.353 1.697-17.469 6.847-17.469 6.847L.994 225l-.989-.001.004-115.997.985-.017.014 15.011s9.41-2.432 11.405-2.747c4.893-.771 15.546-2.912 24.272-4.724 11.028-2.29 18.66-3.465 27.167-5.757 3.259-.879 11.921-2.139 13.64-2.337 5.695-.657 7.758-2.121 13.712-4.29 7.202-2.624 12.051-5.102 14.486-5.403 3.814-.472 11.91-.543 17.075-1.596 5.019-1.023 17.431-7.322 23.107-12.049 4.939-4.113 12.997-9.616 19.26-14.612 7.248-5.782 12.494-10.885 14.171-12.364 3.127-2.757 10.279-10.071 10.279-10.071L168.36 35.93l-10.763-6.246s-6.185-2.766-2.611-9.705c2.791-4.554 8.517-2.662 8.517-2.662l35.985 20.528s7.662-8.841 9.639-10.905c1.977-2.063 5.475-5.309 8.509-6.166 3.035-.856 5.024-.75 6.036-.683 1.013.068 2.86.188 2.86.188s-.624-7.184 4.975-12.699c4.376-4.31 9.219-5.532 13.891-5.658H256s-.237-1 .776-1.013c.441 0 11.931.028 12.485.028.978 0 .795 1.018.795 1.018l3.432-.029s-.04-.978.861-.978L287.414.94c.785 0 .645.918.645.918l336.669.096c2.226 0 7.023.592 11.901 4.591 4.879 4 6.407 11.749 6.407 13.043V301.75c0 1.537.04 8.24-5.702 13.755-5.741 5.515-12.135 5.495-13.759 5.495h-376.48c-2.27 0-7.996.361-14.176-4.649-6.179-5.011-6.384-12.767-6.384-13.946l-.037-160.975z"/></svg>