<svg xmlns="http://www.w3.org/2000/svg" width="1158" height="480"><path fill-rule="evenodd" d="M578.536 1.506l22.425.051-.012.447 4.594-.013-.043-.46 22.041-.019.016.517L1129 2s9.051-.113 17.786 6.714c8.735 6.827 9.711 18.441 9.711 21.38 0 .762.503 184.579.503 251.406 0 42.329-.503 169.327-.503 169.327s-.645 13.319-9.422 20.459c-8.592 6.99-19.605 6.714-19.605 6.714H563.692s-12.304-.437-19.392-7.395c-9.107-8.941-8.813-21.401-8.813-21.401s.007-170.707.007-238.7c-17.427 7.905-27.553 15.91-48.875 20.382-16.119 3.381-33.718.025-48.142-2.016-13.482-1.908-43.628 4.507-43.628 4.507s-33.043 8.74-43.28 12.816c-3.461 1.252-16.77 7.132-20.167 9.028-3.398 1.896-27.477 13.497-46.218 21.716-18.741 8.22-70.25 29.304-105.482 43.445-32.997 14.499-66.239 29.225-99.539 43.167-13.665 6.136-32.824 12.972-50.166 18.78-8.552 2.864-27.986 8.602-27.986 8.602l-.012 19.567-2.002.006.008-218.506 1.994.001.011 21.263s39.798-3.646 43.073-4.039c2.619-.314 24.675-1.348 48.685-3.846 10.529-1.096 21.433-2.731 31.239-4.276 6.387-1.007 17.388-3.733 27.96-6.26 14.075-3.365 27.036-5.85 27.036-5.85l28.375-7.326 70.834-13.848s19.09-4.538 23.83-5.255c6.42-.97 13.071-1.613 18.087-3.316 11.588-3.933 19.15-7.229 30.017-11.551 9.483-3.771 19.411-.113 28.116-3.28 7.145-2.601 13.614-4.1 20.479-8.175 23.871-14.17 45.313-31.653 62.848-47.584 5.042-4.58 18.354-17.024 18.354-17.024S432 43.734 431.596 43.459c-1.851-1.264-7.148-7.302-2.395-14.052 4.989-7.085 13.381-3.342 13.381-3.342l52.96 30.102s4.908-5.329 8.832-10.049c5.809-6.99 9.094-12.112 16.851-15.176 5.86-2.315 14.617-.912 14.617-.912s0-8.053 2.812-13.055c2.812-5.003 7.089-9.189 11.461-11.451C556.353 2.297 562.947 2 562.947 2l15.599.042-.01-.536z"/></svg>