<svg xmlns="http://www.w3.org/2000/svg" width="549" height="436"><path fill-rule="evenodd" d="M321 193.694v208.238s-.017 7.902-5.883 13.036c-5.827 5.1-14.545 5.02-14.545 5.02l-280.618-.022s-8.773-.258-13.88-6.074C-.174 406.622 1 395.663 1 395.389V316 95.5 21.757c.039-9.548 5.527-13.934 5.527-13.934s4.083-5.101 13.588-5.819l264.405-.013s-.227-.524.516-.509c.733.015 15.43.022 16.112.012.648-.009.761.736.761.736s8.041-.366 13.814 5.399c5.773 5.764 5.351 12.582 5.351 12.582l-.049 11.134s.969-.332.974.379c.002.388-.091 12.803-.091 13.62 0 .817-.872.695-.872.695l-.011 3.368s.992-.144.992.866-.056 12.601-.056 13.208c0 .607-.838.623-.838.623l-.092 4.69 2.292-1.549s8.632-6.797 16.307-8.775c11.801-3.042 20.252 9.204 29.475 20.192 8.404 10.014 16.82 18.923 16.82 18.923l28.676-9.454s8.144-3.385 10.866 3.131c3.259 7.8-4.296 10.717-4.296 10.717l-24.165 7.917s31.316 33.761 47.269 43.217c5.342 2.658 11.312 4.642 16.811 6.475 13.059 6.979 28.129 12.432 43.176 18.371C517.671 183.251 547 192.812 547 192.812l-.009-10.823 1.033-.002-.023 115.021-.988-.01-.026-11.443s-25.399-15.934-38.064-23.767c-30.574-20.893-64.691-42.572-107.229-52.887-10.257-2.488-22.432.72-35.628-1.489-18.74-3.138-26.351-14.079-45.066-13.718z"/></svg>