<svg xmlns="http://www.w3.org/2000/svg" width="356" height="325"><path fill-rule="evenodd" d="M17.355.475h322.87c2.444 0 8.315.966 11.438 2.985 3.363 2.175 3.782 4.934 3.782 4.934s.14 1.266.179 2.028c.03.574-.222 1.562-.222 1.562s-.193 1.767-.172 2.143c.062 1.1.115 1.935.139 2.415.056 1.131.173 2.077.056 2.919-.036.522-19.285 122.583-19.285 122.583s-.438 2.315-1.293 3.672c-.854 1.357-2.536 2.609-2.536 2.609v160.448c.064 4.67-1.479 9.453-5.013 12.214-3.495 2.73-6.976 3.518-11.075 3.518H39.208c-4.925 0-8.595-1.541-11.462-4.567-2.672-2.819-3.714-6.957-3.714-11.147l-.037-160.618s-1.71-.89-2.784-2.82c-1.075-1.931-1.093-3.738-1.093-3.738S.829 20.434.77 20.054c-.104-.667-.21-2.721-.154-3.889.036-.749.255-3.168.255-3.168s-.832-3.343.403-6.273c.492-1.17 1.49-2.269 2.87-3.156C9.153.348 17.355.475 17.355.475z"/></svg>