<svg xmlns="http://www.w3.org/2000/svg" width="1932" height="1537"><path fill-rule="evenodd" d="M137.004 58.497L137 57s-.121-1.978 1.716-1.978l65.54.02c1.861 0 1.744 1.483 1.744 1.483V58.5h13.5l.007-1.521s-.148-1.965 1.803-1.965h65.909c1.831 0 1.764 1.507 1.764 1.507l.004 1.979 153.444-.016c-14.979-6.417-17.825-20.114-17.825-29.684 0-6.921 4.025-13.822 7.479-17.928C439.031 2.614 448.972.496 457.795.496l971.498-.007s10.849.384 22.191 2.032C1465.674 4.582 1481 8 1481 8l24.56 4.831-.024 2.71 1.065-.109.068-2.228 53.406 11.904s4.908 1.24 5.252 5.684c.356 4.593-5.418 6.403-5.418 6.403l-53.337 11.682-.074-1.375-.998-.002.008 1.573-46.712 9.427h362.466s51.695-3.042 80.379 22.063c31.412 27.924 29.139 72.433 29.139 72.433l.22 1286.407s2.259 53.047-36 80.097c-28.307 20.014-65.548 16.5-66.905 16.5H92.725s-47.95.108-71.541-33.512c-20.277-21.262-18.653-68.995-18.653-68.995l.044-1204.492-1.067-.005s-1.5.188-1.5-1.492v-80.012c0-1.607 1.502-1.488 1.502-1.488s1.554-.002 1.99-.004c0-21.306 9.033-45.827 23.372-60.261C39.206 73.324 55.45 64.472 74.486 60.686c5.855-1.164 21.075-2.122 21.075-2.122l41.443-.067z"/></svg>