<svg xmlns="http://www.w3.org/2000/svg" width="510" height="93"><path fill-rule="evenodd" d="M510.003 24.003l.01 68.006-1.028.013.01-2.522s-11.372-1.107-15.802-1.706c-3.966-.535-7.959-1.306-10.152-1.913-1.947-.335-6.277-.929-11.504-2.017-2.439-.508-5.358-.676-8.073-1.267-6.562-1.429-13.717-2.667-19.104-4.067-16.77-3.643-54.273-11.849-58.051-12.608-3.778-.758-10.504-2.852-17.022-3.327-4.594-.335-7.629-.412-8.64-.419-1.16-.008-2.375-.167-4.413-.261-2.635-.121-5.583-.288-5.988-.37-.552-.113-2.373-.347-4.749-1.134-2.108-.698-5.98-2.624-7.136-2.967-1.156-.344-5.394-1.054-8.081-1.594-4.174-.838-8.001-1.548-9.928-1.125-2.426.533-5.96.957-8.505 1.368-3.652.424-9.389.633-14.249 1.152-4.274.457-7.956 1.206-8.96 1.402-2.217.432-10.291 1.673-13.207 2.3-3.409.734-4.413 3.675-10.595 1.494-4.118-1.306-8.172-4.069-12.152-5.197-2.92-.828-4.575-1.151-7.457-1.576-3.334-.491-4.837-.867-7.469-1.449-3.525-.78-8.036-2.213-11.031-3.115-1.36-.409-2.655-.464-3.496-.711-.449-.131-.852-.453-1.242-.6-.974-.366-1.862-.802-3.143-1.423-1.853-.897-5.431-2.732-7.215-3.445-1.785-.714-6.565-2.092-8.091-3.2-.804-.583-2.567-1.325-4.01-1.814-1.035-.351-1.905-.534-2.139-.616-.033-.011-2.396-.469-6.393-1.625-.826-.239-1.406-.881-2.141-.858-1.642.049-2.666-.215-3.028-.303-2.234-.543-5.647-1.71-7.775-2.634-.011-.138.308-.854.215-1.545-.072-.544.313-1.22.563-1.735.701-1.448 2.907-2.642 2.907-2.642l-178.921.01c-.86 0-.84-.533-.84-.533l.016-4.309s-.133-.638 1.007-.638l232.94.012s-2.321-.52-4.868-2.598c-.493-.401-.861-.998-1.354-1.589-.291-.347-.642-1.135-.837-1.596-.577-.555-.492-1.109-.216-1.659s2.924-1.685 4.737-2.309c2.262-.779 4.696-1.153 6.979-1.773 1.554-.423 4.122-2.159 6.476-2.66 1.01-.538 3.846-2.048 4.978-2.671 1.374-.755 8.266-.752 10.93-1.188 1.017-.166 4.983-.536 7.47-.696 3.517-.225 5.281-.889 8.66-1.673 2.068-.281 2.066-.759 4.441-.943 2.658-.205 3.454.56 5.92.379.795-.058 2.625-.332 4.678-.391 2.329-.066 4.687.096 5.3.091 1.152-.011 4.885.358 6.098.557 1.213.2 4.894.469 14.585 4.711 5.18 2.267 9.637 4.912 14.428 7.281 6.077 3.004 12.839 4.921 19.298 6.234 5.263 1.069 11.241 1.763 16.8 2.983 5.323 1.168 10.668 1.545 16.06 2.081 8.52.846 17.169 1.412 26.007 2.689 5.102.737 11.862.843 17.296 1.311 8.001.2 15.192.205 23.502-.123 16.335-.281 55.696-.445 55.696-.445l-.001-4.495h.999zM270.5 22.467s.312-.571.647-.947c.367-.411.765-1.084.765-1.125-.59.13-1.439.018-1.797-.045 0 0-.461-.406-.802-.404-.569.003-1.202.711-1.835.771-.662.064-1.309.251-1.958.31-3.382.307-4.471 1.442-4.471 1.442l9.451-.002zm-51.884 5.508c1.249.244 5.235 1.627 9.679 1.443.923-.038 4.733.655 5.671.667.776.01 2.135-.237 2.893-.315.967-.101 3.431-.305 7.344-.298.097 0 1.18-.03 1.18-.03s.418-1.454-1.588-1.467c-2.428-.015-21.718 0-25.179 0z"/></svg>