<svg xmlns="http://www.w3.org/2000/svg" width="1942" height="350"><path fill-rule="evenodd" d="M1939.989 350.007l.008-28.451s-19.167-1.667-33.731-3.114c-5.571-.554-10.469-1.595-13.362-1.851-10.452-.928-15.247-.898-22.111-.73-6.864.167-22.375-2.096-49.394-4.718-15.525-1.507-32.199-2.501-45.978-4.254-21.457-2.695-55.055-6.513-79.01-9.269-14.557-1.676-25.33-2.85-27.16-3.056-6.665-.752-19.581-1.39-34.6-3.96-6.102-1.044-12.551-3.048-19.069-4.197-30.236-5.326-61.964-11.166-67.444-11.874-3.029-.392-27.815-5.046-62.789-12.453-10.489-2.221-21.893-5.033-33.902-7.621-59.868-12.899-134.752-29.471-185.996-40.25-15.623-5.827-41.619-7.085-63.625-7.946-4.093-.16-8.049-.731-11.773-.854-10.616-.351-19.36-.388-24.092-1.285-4.772-.904-12.786-2.842-20.053-5.679-6.38-2.491-12.183-5.906-14.711-6.782-5.408-1.875-24.508-4.352-39.333-8.147-14.081-4.327-32.215-2.077-46.381 1.161-9.475 2.166-17.07 2.302-19.637 2.508-3.813.306-11.778 1.511-19.366 2.004-5.261.342-10.34-.084-13.731.365-23.543 2.875-41.741 7.355-62.462 10.795-3.831.636-7.703.923-11.655 1.484-9.541 1.8-18.592 9.758-30.63 7.36-17.946-3.575-30.197-16.2-54.31-20.584-12.842-3.146-28.538-5.988-40.537-8.154-21.248-7.151-48.113-12.582-52.485-14.311-4.373-1.73-22.055-9.971-33.553-15.637-8.288-3.76-21.363-7.791-25.61-9.689-2.18-.974-8.338-4.521-13.771-7.223-.86-.428-1.712-.214-2.541-.603-.793-.374-1.514-1.689-2.324-1.652-2.853.129-5.575-1.335-6.319-1.665-3.28-.431-7.255-1.042-11.698-2.336-5.173-1.506-9.351-2.4-12.444-3.781-2.046-.913-4.711-1.725-4.711-1.725s-1.69-1.192-3.227-1.005c-2.653.321-10.884-1.42-13.769-2.602-1.519-.622-11.168-3.139-19.805-7.329.341-.6.95-.914.945-1.655-.023-3.446.522-7.598 2.287-10.285 3.544-5.393 9.943-7.398 9.943-7.398l-600.06-.03s-.388.07-.804-.619c-.255-.434-.207-1.411-.207-1.411L3.001 74.74s-.081-1.372.554-1.605c.478-.175 1.617-.115 1.617-.115s778.381-.066 778.355.01c-7.178-1.385-16.625-6.653-20.968-14.646-.792-1.458-1.438-2.792-2.201-4.487-1.02-2.397-2.705-2.455-1.139-4.512 4.314-4.769 10.643-6.654 17.261-8.879 3.732-1.255 13.061-3.418 22.498-6.202 3.074-.907 5.421-2.538 8.566-3.7C811.865 29.008 816.13 27.808 820 26c8-4.68 18.275-10.345 20.5-10.71 2.225-.366 13.001-.623 19.5-.79 19.498-1.833 38.469-4.826 57.967-6.659 8.454-1.475 19.292-4.995 26.033-6.696 6.741-1.702 12.762 3.698 19.861 2.412 7.873-1.427 23.893-2.83 34.303-1.52 16.613 2.091 32.983 4.692 46.91 10.157 38.846 15.244 67.162 34.418 107.231 47.07 12.71 4.013 26.896 5.622 41.865 8.478 67.886 12.951 151.884 17.307 187.464 23.679 21.219 2.029 69.349 3.95 94.935 4.382 7.5 0 21.052-.315 28.484-.391 6.615.657 47.999-1.956 54.341-1.868 6.341.087 17.434-.396 25.433-.396 29.997-.166 79.375-1.157 84.169-1.122 4.794.036 22.774.711 29.755.534 3.644-.092 68.122 3.5 76.664 4.152 7.441.567 44.54 6.214 52.585 7.472 5.346.837 53.926 9.131 85.921 14.212 11.629 1.846 21.067 2.559 25.441 3.339.073.013.624.087.624.087l.014-30.821 2 .002.006 259.006-2.017-.002zM811.017 91.494c-1.532 0-64.608-.005-85.195-.005 7.795 3.416 11.889 2.431 21.321 4.427 4.543.961 9.394-.471 13.557.248 5.835 1.008 11.744 1.17 17.652 2.061 3.06.462 6.284-.604 9.483-.823 8.626-.59 23.715-1.333 23.715-1.333l3.03-.034s.512-4.541-3.563-4.541zm88.311-25.289c-1.695-.544-3.269-2.692-4.302-1.855-3.605 2.923-4.964 3.296-7.752 3.675-2.392.324-20.711 4.826-20.711 4.826l32.012-.071s4.295-5.337 5.044-6.383c-.333 0-2.595.351-4.291-.192z"/></svg>