<svg xmlns="http://www.w3.org/2000/svg" width="1056" height="192"><path fill-rule="evenodd" d="M1056 57.166v127.812s-11.998-.918-24.119-2.555c-8.314-1.123-16.685-2.739-21.283-4.012-4.084-.702-13.162-1.946-24.12-4.228-5.113-1.065-11.234-1.418-16.926-2.657-13.758-2.995-28.757-5.591-40.052-8.526-35.16-7.639-113.787-24.842-121.708-26.433-7.921-1.591-22.023-5.979-35.689-6.975-9.632-.702-15.995-.865-18.114-.879-2.432-.016-4.979-.351-9.252-.547-5.525-.255-11.706-.605-12.554-.777-1.158-.235-4.976-.727-9.957-2.377-4.419-1.464-12.537-5.5-14.96-6.221-2.424-.72-11.309-2.21-16.944-3.341-8.751-1.758-16.773-3.246-20.814-2.359-5.086 1.117-12.496 2.007-17.832 2.867-7.657.89-19.685 1.328-29.874 2.417-8.961.957-16.681 2.527-18.785 2.938-4.648.908-21.576 3.509-27.691 4.824-7.147 1.537-9.251 7.704-22.212 3.13-8.633-2.736-17.134-8.529-25.478-10.894-6.122-1.736-9.592-2.414-15.634-3.304-6.989-1.03-10.14-1.818-15.66-3.039-7.39-1.635-16.848-4.64-23.127-6.53-2.852-.859-5.565-.972-7.33-1.491-.94-.275-1.786-.95-2.604-1.258-2.04-.768-3.902-1.683-6.588-2.983-3.885-1.881-11.386-5.728-15.128-7.223-3.742-1.496-13.764-4.386-16.963-6.709-1.686-1.223-5.382-2.778-8.407-3.804-2.169-.736-3.993-1.119-4.485-1.29-.069-.024-5.022-.984-13.403-3.408-1.732-.501-2.947-1.846-4.488-1.8-3.444.104-5.589-.449-6.349-.634-4.683-1.138-11.84-3.585-16.3-5.523-.024-.289.645-1.79.451-3.239-.153-1.14.655-2.558 1.178-3.637 1.472-3.036 6.096-5.54 6.096-5.54l-375.121.021c-1.804 0-1.762-1.116-1.762-1.116l.034-9.516s-.28-1.34 2.112-1.34l488.375.026s-5.358-.694-10.698-5.05c-1.033-.843-2.097-2.261-3.131-3.5-.609-.729-1.212-2.653-1.621-3.62-1.209-1.163-.945-1.713-.366-2.866s6.694-3.616 10.494-4.925c4.743-1.634 9.846-2.417 14.634-3.718 3.258-.886 8.641-4.526 13.577-5.576 2.118-1.129 8.064-4.295 10.437-5.6 2.881-1.584 17.33-1.578 22.915-2.49 2.133-.349 10.448-1.125 15.661-1.459 7.374-.473 11.073-1.866 18.157-3.509 4.337-.589 4.331-1.592 9.311-1.976 5.573-.43 7.241 1.174 12.411.794 1.666-.122 5.504-.697 9.809-.819 4.883-.139 9.827.201 11.111.189 2.416-.023 9.972 1.203 12.515 1.622 2.543.419 10.348 1.108 30.666 10 10.86 4.753 20.387 9.722 30.431 14.688 12.742 6.3 26.918 10.319 40.461 13.07 11.033 2.242 23.567 3.697 35.223 6.255 11.158 2.448 22.366 3.24 33.669 4.362 17.865 1.773 35.969 3.374 54.498 6.051 10.697 1.546 24.025 1.239 35.418 2.22 16.331.834 32.725.546 50.147-.143 38.971-.668 107.738-1.87 107.738-1.87zm-491.836-12.2s.267-.781.97-1.568c.769-.862 1.805-1.958 1.805-2.045-1.337.374-2.891-.196-2.891-.196s-.833-.987-1.548-.983c-1.192.007-2.52 1.491-3.847 1.618-1.387.132-2.745.526-4.105.649-7.09.644-9.916 2.781-9.916 2.781l19.532-.256zM456.21 57.009c2.62.511 11.621 2.979 20.938 2.594 1.934-.08 8.178 1.104 10.146 1.13 1.625.022 4.387-.067 5.975-.232 2.028-.211 8.617-.761 16.819-.745.205 0 1.032.087 1.032.087s1.574-2.808-2.633-2.834c-5.089-.032-45.021 0-52.277 0z"/></svg>