<svg xmlns="http://www.w3.org/2000/svg" viewBox="0 0 40 56">
	<path fill="#86868b" d="M26.182,32.177V23.823a.8.8,0,0,1,.864-.878h3.242c1.869,0,3.1.991,3.1,2.492a2.225,2.225,0,0,1-1.742,2.237v.071a2.437,2.437,0,0,1,2.336,2.478c0,1.742-1.43,2.832-3.7,2.832H27.046A.807.807,0,0,1,26.182,32.177Zm3.37-4.885c1.473,0,2.322-.595,2.322-1.6,0-.977-.708-1.572-1.883-1.572H27.7v3.172Zm.113,4.574c1.869,0,2.747-.538,2.747-1.7,0-1.119-.821-1.77-2.209-1.77H27.7v3.469Z"/>
	<path fill="#86868b" d="M14.637,32.375V23.752a.881.881,0,0,1,.936-.92.971.971,0,0,1,.99.651L19.608,31.1h.057l3.03-7.618a.972.972,0,0,1,.991-.651.881.881,0,0,1,.935.92v8.624a.719.719,0,1,1-1.431,0V25.564h-.084L20.4,32.347a.833.833,0,0,1-1.558,0l-2.69-6.783h-.085v6.811a.719.719,0,1,1-1.431,0Z"/>
	<path fill="#86868b" d="M6.072,32.22l-.055-8.425a.792.792,0,0,1,.805-.878H9.994c2.152,0,3.555,1.246,3.555,3.186a3.037,3.037,0,0,1-2.181,2.945l1.756,2.79a1.035,1.035,0,0,1,.185.581.663.663,0,0,1-.723.666c-.34,0-.538-.142-.779-.524l-1.982-3.3H7.63V32.22a.758.758,0,0,1-.793.864C6.342,33.083,6.072,32.744,6.072,32.22ZM9.9,28.1c1.345,0,2.209-.722,2.209-1.954a1.952,1.952,0,0,0-2.181-2.011H7.746V28.1Z"/>
	<path fill="#86868b" d="M20,10.7A17.3,17.3,0,1,1,2.7,28,17.32,17.32,0,0,1,20,10.7m0-2.2A19.5,19.5,0,1,0,39.5,28,19.5,19.5,0,0,0,20,8.5Z"/>
</svg>
