<svg xmlns="http://www.w3.org/2000/svg" width="2318" height="776"><path fill-rule="evenodd" d="M1380.3.986c1.172 0 32.127.031 33.402.031 1.276 0 1.123 1.519 1.123 1.519l8.014-.076s-.283-1.459 1.35-1.459h32.775c1.323 0 1.228 1.514 1.228 1.514s33.255-.014 45.054-.014H2250.739s11.539.022 16.657.022c5.119 0 13.399.718 20.214 2.96 4.857 1.597 9.405 4.338 13.722 7.68 14.384 11.136 15.698 29.546 15.677 36.699-.006 1.87.015 2.971.015 2.971l-.023 673.633s.182 5.763-1.247 12.794c-1.256 6.185-4.148 13.46-8.216 18.546-4.868 6.086-11.745 11.054-17.907 13.328-10.815 3.991-21.844 3.373-21.844 3.373l-908.228-.002s-23.669 1.517-36.708-12.328c-14.682-15.591-13.884-32.919-13.884-41.211 0-116.488.021-262.575.021-379.064-11.345 2.258-22.386 11.017-34.879 15.636-23.281 11.351-44.772 17.937-65.437 18.452-22.068.549-42.888-3.91-49.281-5.105-5.053-.945-11.251-3.27-27.574.438-18.534 1.134-28.252 1.915-44.795 5.584-15.057 3.34-28.736 7.537-39.598 9.481-10.862 1.943-24.408 8.14-38.694 12.576-17.844 5.542-67.016 33.942-97.246 46.104-72.026 28.978-120.32 47.598-176.429 71.679-33.872 14.867-104.963 47.148-134.588 59.916-32.321 13.929-93.325 39.049-143.818 52.827-52.236 14.253-96.26 25.246-190.511 44.759-36.872 7.634-68.328 19.451-89.709 20.548-48.988 2.513-60.526-11.439-98.917-15.555-25.771-2.764-75.525-8.682-75.525-8.682v23.436L0 693.991.005 348.99h1.979l-.004 16.978s30.613 11.443 55.736 17.174c15.809 3.606 28.888 6.303 39.645 7.126 18.358 1.406 29.955-.998 36.823-1.728 6.075-.646 21.284-2.6 40.58-5.878 4.017-.682 8.212-1.691 12.538-2.308 22.637-3.229 48.878-7.709 72.199-11.147 31.063-4.578 55.666-7.246 62.227-8.207 39.517-5.521 80.024-11.421 125.71-16.059 20.538-2.313 106.872-9.668 119.382-10.391 12.509-.723 61.752-2.938 103.158-15.273 29.744-7.6 54.941-12.148 84.936-19.255 16.163-4.234 49.558-10.662 61.076-13.267 9.693-2.193 57.329-10.565 81.402-16.541 17.093-4.244 36.387-5.123 61.378-12.072 34.147-9.494 44.299-19.006 59.307-21.25 16.314-2.439 22.184 1.182 37.09-3.317 14.3-4.316 36.157-11.729 58.26-28.552 11.43-8.698 38.883-28.15 57.042-43.576 17.63-14.975 50.569-46.416 50.569-46.416s-71.278-40.561-76.206-43.252c-9.386-5.127-13.809-14.21-8.649-23.893 2.014-3.78 5.839-6.631 10.73-8.099 7.198-2.16 19.65 5.85 19.65 5.85l77.712 44.455s8.815-9.94 25.227-29.019c17.446-20.28 40-12.917 40-12.917s-.168-5.222.978-10.434c1.021-4.647 2.168-7.219 2.986-9.054.817-1.835 7.654-18.955 29.472-24.368 1.281-.318 3.353-.844 6.315-1.181 4.075-.464 8.565-.523 8.565-.523l21.397-.1s-.086-1.51 1.085-1.51z"/></svg>