<svg xmlns="http://www.w3.org/2000/svg" width="1012" height="624"><path fill-rule="evenodd" d="M476.514 101.257s18.743-13.24 28.267-15.631c18.77-3.337 25.34 9.176 25.34 9.176s10.855 13.035 16.615 19.896c9.454 11.262 26.129 29.627 26.129 29.627l44.392-14.729s11.238-3.364 14.766 5.798c4.449 11.554-7.559 15.438-7.559 15.438l-35.156 11.393s10.847 11.973 25.386 26.51c14.732 14.73 29.814 28.947 48.307 39.905 8.492 4.163 20.63 8.67 31.629 12.67 30.069 13.109 61.669 26.372 94.704 37.094 14.037 4.41 28.907 9.064 44.044 13.231 13.639 3.754 27.494 8.096 41.152 12.039 10.305 2.975 20.497 5.413 30.399 8.95 5.532 1.352 27.463 7.642 49.87 12.216 27.256 5.564 55.215 9.67 55.215 9.67l-.016-17.518 2.005.005-.002 144.794.01 79.188-2.01.016.008-16.711s-26.457-9.18-51.038-19.007c-18-7.195-34.995-15.105-39.86-18.174-34.786-21.943-68.66-38.767-103.773-61.974-20.356-13.453-47.216-30.801-71.484-45.843-19.245-13.247-52.106-34.826-77.77-44.825-11.101-3.969-27.488-11.634-44.914-17.76-9.528-3.349-19.29-7.559-28.734-8.354-14.728-1.239-43.046 2.463-59.232-3.697-10.304-2.677-34.013-14.651-39.631-16.248-5.215-1.482-17.079-1.579-17.079-1.579v309.42c0 2.978-2.29 14.847-10.022 20.305-9.101 7.24-21.848 6.452-21.848 6.452H27.32s-12.768-1.189-19.203-9.353C1.058 605.856 1 594.817 1 594.817V33.51C1 26.494 2.931 9.642 19.985 4.03c5.283-1.739 8.173-1.537 8.173-1.537l393.826-.029-.014-.926 26.483-.067.018.999s.496.004.78.004c2.567 0 11.974 1.559 17.077 6.109 10.506 9.367 10.191 20.371 10.191 20.371l.018 16.544s.96-.21.96.519c0 .73.039 20.549.039 21.03 0 .481-1.047.398-1.047.398l.003 4.47s.983-.225.983.529c0 .755-.069 19.79-.069 20.728 0 .939-.896.865-.896.865l.004 7.22z"/></svg>