<?xml version="1.0" encoding="utf-8"?>
<!-- Generator: Adobe Illustrator 23.1.1, SVG Export Plug-In . SVG Version: 6.00 Build 0)  -->
<svg version="1.1" id="Layer_1" xmlns="http://www.w3.org/2000/svg" xmlns:xlink="http://www.w3.org/1999/xlink" x="0px" y="0px"
	 viewBox="0 0 1378 1150" style="enable-background:new 0 0 1378 1150;" xml:space="preserve">
<style type="text/css">
	.st0{fill-rule:evenodd;clip-rule:evenodd;}
	.st1{fill:none;}
</style>
<path class="st0" d="M58.9,99.1c16.8-22.5,43.4-42.9,73.5-56.4c33.3-14.9,71-21.2,93.7-21.3l0,0l-0.1-5.8c0,0,0.2-2.2,3.5-2.2
	s191.9,0.1,196.1,0.1s3.9,2.4,3.9,2.4v4L1378,20v1130H9.5V726H6.6c0,0-3.6-0.3-3.6-3.5V559c0-2.9,3.3-3,3.3-3h3.2v-35h-3
	c0,0-3.6,0.5-3.6-2.4V354c0-2.7,3-2.5,3-2.5h3.5c0,0,0.3-32,0.3-47.7c0-37.9,0.6-67.4,3.5-91.6C19.8,159,34.5,131.8,58.9,99.1z"/>
<rect class="st1" width="1378" height="1150"/>
</svg>
