<?xml version="1.0" encoding="utf-8"?>
<!-- Generator: Adobe Illustrator 23.1.1, SVG Export Plug-In . SVG Version: 6.00 Build 0)  -->
<svg version="1.1" id="Layer_1" xmlns="http://www.w3.org/2000/svg" xmlns:xlink="http://www.w3.org/1999/xlink" x="0px" y="0px"
	 viewBox="0 0 848 690" style="enable-background:new 0 0 848 690;" xml:space="preserve">
<style type="text/css">
	.st0{fill-rule:evenodd;clip-rule:evenodd;}
	.st1{fill:none;}
</style>
<path class="st0" d="M34.5,60c10.3-13.8,27.4-27,45.8-35.3c18.9-8.5,40.7-11.3,54.7-11.8c1,0,2.1-0.1,3.1-0.1H135l0-3.5
	c0,0,0.1-1.3,2.2-1.3l117.5,0c2.6,0,2.4,1.5,2.4,1.5l0,2.5l590,0l0,677L5.5,689l0-254l-1.8,0c0,0-2.2-0.2-2.2-2.1l0-98
	c0-1.8,2-1.8,2-1.8l1.9,0l0-21l-1.8,0c0,0-2.2,0.1-2.2-1.7l0-98.3c0-1.7,1.8-1.5,1.8-1.5l2.2,0c0,0,0.2-15.2,0.2-24.8
	c0-23.2,0.2-41.3,1.9-56.1C11.6,97,19.5,80,34.5,60L34.5,60z"/>
<rect class="st1" width="847" height="689"/>
</svg>
